<svg xmlns="http://www.w3.org/2000/svg" xml:space="preserve" width="192" height="192" viewBox="0 0 50.8 50.8"><defs><linearGradient id="a" x1="0" x2="0" y1="0" y2="1"><stop offset="0" stop-color="#00cb33"/><stop offset="1" stop-color="#006733"/></linearGradient></defs><path d="M16.299 40.608c-5.07-1.738-10.35-5.694-12.55-10.05C1.714 26.529.897 23.384.244 15.496c-.653-7.888-.135-7.22 3.308-4.535 3.442 2.686 6.542 2.955 12.79.598 6.249-2.357 9.642-2.947 14.886-2.616 9.337.59 15.965 6.85 18.77 12.536.676 1.37 1.737 6.535-.832 10.826-.76 1.272-2.883 3.62-6.024 5.472-2.454 1.447-5.45 2.472-7.318 2.91-6.77 1.586-14.092 1.784-19.525-.08Z" style="fill:url(#a)"/></svg>